<svg xmlns="http://www.w3.org/2000/svg" viewBox="0 0 380 380" width="380" height="380">
  <!-- Purple shapes - transparent background -->
  <g fill="currentColor">
    <path d="M 186.00 134.00 C 188.28 134.14 190.72 134.11 193.00 134.00 C 205.04 133.40 215.04 125.03 219.22 114.22 C 223.40 103.42 219.57 87.25 209.70 81.30 C 199.83 75.36 189.50 63.97 201.75 57.75 C 214.01 51.54 217.72 37.98 207.75 30.25 C 197.78 22.53 181.78 22.32 171.75 29.75 C 161.73 37.18 165.65 51.33 177.30 57.70 C 188.95 64.06 178.80 75.99 168.75 81.75 C 158.71 87.52 155.65 104.59 160.08 114.92 C 164.50 125.26 174.34 133.26 186.00 134.00 Z"/>
    <path d="M 41.00 114.00 C 40.86 116.21 40.75 118.80 41.00 121.00 C 44.63 135.67 62.21 131.95 69.75 120.75 C 77.29 109.54 81.57 101.94 84.22 87.22 C 86.88 72.50 106.41 76.26 117.32 72.32 C 128.24 68.39 139.92 63.27 142.00 49.00 C 144.08 34.73 121.97 33.06 112.23 41.23 C 102.49 49.40 94.48 54.73 90.30 67.30 C 86.13 79.88 67.78 75.99 59.08 84.08 C 50.38 92.17 41.79 101.58 41.00 114.00 Z"/>
    <path d="M 252.00 36.00 C 249.82 35.89 247.15 35.67 245.00 36.00 C 229.85 40.60 238.40 57.74 248.25 65.75 C 258.11 73.75 273.86 72.45 285.92 76.08 C 297.99 79.70 295.63 99.41 301.70 108.31 C 307.76 117.20 312.82 131.50 327.00 131.00 C 341.17 130.49 340.20 107.65 332.92 99.08 C 325.64 90.51 320.26 77.26 306.22 77.78 C 292.18 78.29 287.68 64.00 281.75 54.25 C 275.82 44.49 262.50 36.52 252.00 36.00 Z"/>
    <path d="M 118.00 110.00 C 95.57 106.36 77.23 129.84 84.01 147.99 C 90.79 166.14 111.89 181.80 101.77 200.77 C 91.65 219.74 75.09 232.35 84.08 252.92 C 93.06 273.50 118.18 276.70 131.75 259.75 C 145.31 242.79 133.68 222.83 120.92 207.08 C 108.16 191.33 119.52 169.93 133.70 156.70 C 147.87 143.47 137.06 113.09 118.00 110.00 Z"/>
    <path d="M 274.00 110.00 C 250.26 105.08 233.18 129.64 241.03 147.98 C 248.87 166.31 270.08 179.59 261.31 199.31 C 252.53 219.02 235.66 230.76 243.08 251.92 C 250.49 273.09 276.50 276.40 290.25 260.25 C 303.99 244.10 294.86 223.04 280.75 208.25 C 266.65 193.45 277.97 170.05 290.75 156.75 C 303.52 143.44 291.93 113.71 274.00 110.00 Z"/>
    <path d="M 158.00 186.00 C 157.92 188.31 157.89 190.70 158.00 193.00 C 160.01 233.46 222.53 228.14 221.99 189.01 C 221.45 149.88 159.34 146.78 158.00 186.00 Z"/>
    <path d="M 54.00 196.00 C 54.09 191.36 54.18 186.64 54.00 182.00 C 53.60 171.59 46.38 152.96 33.70 158.70 C 21.01 164.43 21.47 179.45 21.00 190.00 C 20.53 200.55 22.61 217.61 35.00 221.00 C 47.39 224.39 53.81 205.39 54.00 196.00 Z"/>
    <path d="M 357.00 196.00 C 357.13 192.69 357.07 189.31 357.00 186.00 C 356.80 175.83 352.25 156.51 339.00 158.00 C 325.76 159.49 323.62 177.53 324.00 188.00 C 324.38 198.47 324.60 216.36 337.33 220.67 C 350.06 224.98 356.63 205.67 357.00 196.00 Z"/>
    <path d="M 221.00 280.00 C 221.11 277.72 221.14 275.28 221.00 273.00 C 220.11 259.02 208.14 248.22 195.07 245.93 C 182.00 243.63 166.42 250.24 160.93 262.93 C 155.43 275.61 157.41 292.59 170.25 300.75 C 183.10 308.91 188.08 319.49 172.75 328.75 C 157.42 338.02 167.87 354.82 180.93 358.07 C 193.98 361.33 214.60 354.63 213.78 340.22 C 212.95 325.82 187.86 322.10 198.75 309.75 C 209.65 297.41 220.15 297.18 221.00 280.00 Z"/>
    <path d="M 53.00 249.00 C 35.28 246.78 36.43 271.95 43.70 281.30 C 50.96 290.66 55.41 304.09 70.33 304.67 C 85.25 305.25 89.37 317.87 96.75 329.25 C 104.12 340.64 113.19 346.55 128.00 348.00 C 142.81 349.45 145.13 329.05 132.75 320.25 C 120.38 311.44 110.18 308.91 95.22 307.78 C 80.27 306.65 83.32 283.31 77.77 274.23 C 72.22 265.15 64.82 250.48 53.00 249.00 Z"/>
    <path d="M 331.00 249.00 C 317.67 246.38 308.66 262.66 302.31 271.31 C 295.95 279.95 299.50 302.86 286.69 306.69 C 273.88 310.53 257.80 310.12 246.75 317.75 C 235.70 325.39 231.67 344.34 245.00 348.00 C 258.33 351.66 271.85 340.32 279.75 331.75 C 287.65 323.17 289.65 304.43 303.98 304.98 C 318.30 305.52 326.53 292.17 333.75 283.75 C 340.96 275.32 344.73 251.69 331.00 249.00 Z"/>
  </g>
</svg>
